<svg viewBox="0 0 1024 1024" xmlns="http://www.w3.org/2000/svg" width="128" height="128">
  <path d="M586.2 160h-148.4c-11.4 0-21.2 8.2-23.2 19.4L400.1 262c-23.1 7.9-44.8 19.3-64.7 33.7l-78.5-44.5c-10-5.7-22.6-3-29.3 6.4L153.4 384c-6.8 9.5-4.8 22.5 4.3 29.8l67.5 53.6c-2.3 12-3.6 24.3-3.6 36.8s1.3 24.8 3.6 36.8l-67.5 53.6c-9.1 7.2-11.1 20.3-4.3 29.8l74.2 126.5c6.7 9.4 19.3 12.1 29.3 6.4l78.5-44.5c19.9 14.4 41.6 25.8 64.7 33.7l14.5 82.5c2 11.2 11.8 19.4 23.2 19.4h148.4c11.4 0 21.2-8.2 23.2-19.4l14.5-82.5c23.1-7.9 44.8-19.3 64.7-33.7l78.5 44.5c10 5.7 22.6 3 29.3-6.4l74.2-126.5c6.8-9.5 4.8-22.5-4.3-29.8l-67.5-53.6c2.3-12 3.6-24.3 3.6-36.8s-1.3-24.8-3.6-36.8l67.5-53.6c9.1-7.2 11.1-20.3 4.3-29.8L870.6 257.6c-6.7-9.4-19.3-12.1-29.3-6.4l-78.5 44.5c-19.9-14.4-41.6-25.8-64.7-33.7l-14.5-82.5c-2-11.2-11.8-19.4-23.2-19.4zM512 640c-70.7 0-128-57.3-128-128s57.3-128 128-128 128 57.3 128 128-57.3 128-128 128z" fill="currentColor"/>
</svg>
